<?xml version="1.0" encoding="UTF-8" standalone="no"?>
<!DOCTYPE svg PUBLIC "-//W3C//DTD SVG 1.1//EN" "http://www.w3.org/Graphics/SVG/1.1/DTD/svg11.dtd">
<svg width="100%" height="100%" viewBox="0 0 2048 2048" version="1.1" xmlns="http://www.w3.org/2000/svg" xmlns:xlink="http://www.w3.org/1999/xlink" xml:space="preserve" xmlns:serif="http://www.serif.com/" style="fill-rule:evenodd;clip-rule:evenodd;stroke-linecap:round;stroke-linejoin:round;stroke-miterlimit:1.5;">
    <g transform="matrix(1,0,0,1,68.0315,0)">
        <g transform="matrix(1.62007,0,0,1.15638,-163.848,-295.415)">
            <path d="M844.201,791.828C846.487,786.984 850.355,784.07 854.5,784.07C858.645,784.07 862.513,786.984 864.799,791.828C923.964,917.23 1220.24,1545.2 1285.34,1683.17C1287.85,1688.48 1288.07,1695.29 1285.91,1700.9C1283.76,1706.5 1279.59,1710 1275.04,1710L433.958,1710C429.414,1710 425.238,1706.5 423.085,1700.9C420.933,1695.29 421.154,1688.48 423.66,1683.17C488.756,1545.2 785.036,917.23 844.201,791.828Z" style="fill:rgb(53,72,150);"/>
        </g>
        <path d="M1234.91,667.867C1232.75,664.401 1228.96,662.275 1224.88,662.226C1220.79,662.177 1216.96,664.212 1214.71,667.626C1154.56,758.995 849.518,1222.31 806.136,1288.2C803.115,1292.79 803.595,1298.84 807.301,1302.89C822.184,1319.18 859.566,1360.08 876.905,1379.05C879.216,1381.58 882.496,1383 885.921,1382.95C889.345,1382.91 892.587,1381.4 894.83,1378.81C938.271,1328.7 1128.88,1108.81 1170.82,1060.43C1172.96,1057.97 1176.01,1056.48 1179.27,1056.31C1182.53,1056.14 1185.72,1057.31 1188.1,1059.55C1203.68,1074.18 1235.33,1103.89 1251.31,1118.9C1253.78,1121.22 1257.13,1122.39 1260.51,1122.11C1263.9,1121.83 1267,1120.12 1269.06,1117.42C1287.55,1093.17 1332.61,1034.06 1348.41,1013.33C1351.71,1009.01 1357.5,1007.44 1362.52,1009.5C1378.94,1016.26 1415.8,1031.42 1443.49,1042.81C1448.31,1044.79 1453.86,1043.43 1457.22,1039.45C1460.58,1035.47 1460.99,1029.77 1458.23,1025.35C1407.22,943.703 1272.57,728.154 1234.91,667.867Z" style="fill:white;stroke:black;stroke-width:1px;"/>
    </g>
    <g transform="matrix(1,0,0,1,-86.811,0)">
        <g transform="matrix(1.12179,0,0,0.800722,-277.601,312.765)">
            <path d="M839.627,801.524C842.928,794.528 848.514,790.319 854.5,790.319C860.486,790.319 866.072,794.528 869.373,801.524C935.959,942.653 1206.6,1516.27 1279.72,1671.25C1283.34,1678.92 1283.65,1688.75 1280.55,1696.85C1277.44,1704.95 1271.41,1710 1264.84,1710C1124.99,1710 584.013,1710 444.156,1710C437.593,1710 431.561,1704.95 428.454,1696.85C425.346,1688.75 425.664,1678.92 429.283,1671.25C502.401,1516.27 773.041,942.653 839.627,801.524Z" style="fill:rgb(53,72,150);"/>
        </g>
        <path d="M694.952,1003C692.837,999.385 688.992,997.136 684.806,997.062C680.621,996.989 676.7,999.102 674.459,1002.64C651.525,1038.84 597.324,1124.4 574.462,1160.49C572.229,1164.01 571.987,1168.44 573.823,1172.19C575.658,1175.93 579.308,1178.46 583.461,1178.85C597.814,1180.22 616.092,1181.96 623.574,1182.67C625.813,1182.89 628.067,1182.47 630.078,1181.46C639.143,1176.93 665.709,1163.65 675.405,1158.8C677.738,1157.63 680.388,1157.26 682.953,1157.73C696.625,1160.26 742.685,1168.77 772.213,1174.23C776.829,1175.09 781.52,1173.17 784.217,1169.33C786.914,1165.48 787.122,1160.42 784.75,1156.37C761.843,1117.25 715.336,1037.81 694.952,1003Z" style="fill:white;stroke:black;stroke-width:1px;"/>
    </g>
</svg>
