<?xml version="1.0" encoding="UTF-8" standalone="no"?>
<!DOCTYPE svg PUBLIC "-//W3C//DTD SVG 1.1//EN" "http://www.w3.org/Graphics/SVG/1.1/DTD/svg11.dtd">
<svg width="100%" height="100%" viewBox="0 0 2048 2048" version="1.1" xmlns="http://www.w3.org/2000/svg" xmlns:xlink="http://www.w3.org/1999/xlink" xml:space="preserve" xmlns:serif="http://www.serif.com/" style="fill-rule:evenodd;clip-rule:evenodd;stroke-linejoin:round;stroke-miterlimit:2;">
    <g transform="matrix(0.892639,0.450772,-0.450772,0.892639,472.807,-280.896)">
        <circle cx="835.5" cy="947.5" r="478.5" style="fill:rgb(26,26,26);"/>
        <g transform="matrix(2.25,0,0,2.25,-385.25,449)">
            <circle cx="433" cy="168" r="48" style="fill:rgb(191,191,191);"/>
        </g>
        <g transform="matrix(2.25,0,0,2.25,-339.114,796.798)">
            <circle cx="433" cy="168" r="48" style="fill:rgb(191,191,191);"/>
        </g>
        <g transform="matrix(2.25,0,0,2.25,157.75,538)">
            <circle cx="433" cy="168" r="48" style="fill:rgb(191,191,191);"/>
        </g>
        <g transform="matrix(2.25,0,0,2.25,-98.25,274)">
            <circle cx="433" cy="168" r="48" style="fill:rgb(191,191,191);"/>
        </g>
        <g transform="matrix(1,0,0,1,404.342,786.296)">
            <circle cx="433" cy="168" r="48" style="fill:rgb(191,191,191);"/>
        </g>
        <g transform="matrix(2.25,0,0,2.25,3.75,829)">
            <circle cx="433" cy="168" r="48" style="fill:rgb(191,191,191);"/>
        </g>
    </g>
</svg>
